<svg xmlns="http://www.w3.org/2000/svg" xmlns:xlink="http://www.w3.org/1999/xlink" viewBox="0 0 259.78 255.82"><defs><style>.cls-1{stroke:#fff;stroke-miterlimit:10;fill:url(#未命名漸層_9);}</style><radialGradient id="未命名漸層_9" cx="130.04" cy="127.92" r="128.33" gradientUnits="userSpaceOnUse"><stop offset="0" stop-color="#fff"/><stop offset="0.03" stop-color="#f1f1f1"/><stop offset="0.14" stop-color="#b9b9b9"/><stop offset="0.26" stop-color="#888"/><stop offset="0.37" stop-color="#5e5e5e"/><stop offset="0.49" stop-color="#3c3c3c"/><stop offset="0.61" stop-color="#222"/><stop offset="0.74" stop-color="#0f0f0f"/><stop offset="0.86" stop-color="#040404"/><stop offset="1"/></radialGradient></defs><g id="圖層_2" data-name="圖層 2"><g id="圖層_1-2" data-name="圖層 1"><path class="cls-1" d="M58.22,195.46c12.36-3.86,28.14,11.92,28.14,11.92,0,47.32-31.55,31.55-59.17,29.81-.17,4.91-1.63,7.13-5.33,5.65L.79,224C23.26,207.38,39,207.38,53.24,207.36A19.38,19.38,0,0,0,58.22,195.46ZM53.78,175C39,144.28-8.29,144.28,7.49,97,23.26,112.73,39,144.28,57.66,172,55,171.91,53.78,175,53.78,175ZM30.33,90a180.81,180.81,0,0,1-5.2-36.37c-.38-12.07-.31-23-6.59-25.94l12.2-20C36.64,9.93,42.65,13,41.6,23.21a270.13,270.13,0,0,0-1.29,34.63Zm32-74.46c24,50.52-70.62,113.61,24,145.16C23.26,97.58,70.58,50.26,102.13,2.94c-31.55,63.1-47.32,142,15.78,189.29,15.77,0,47.32-15.78,47.32-47.32-31.55,0-110.42-78.87-31.55-94.65-63.1,0-15.77,94.65-47.32,78.87C39,113.36,86.36,2.94,165.23,2.94c-47.32,0-47.32,31.55-63.1,63.1C133.68,34.49,165.23,18.71,213.21.51L240.36,3.9q8.87,1.11,1.11,6.65s-10.25,6.35-24,15.37c-4.94,71.66,73.93,134.76,26.61,213.63,15.77-78.87,0-142-78.87-173.51,63.09,15.77,94.64,110.41,47.32,157.74,31.55-78.87,0-142-78.87-157.74h63.1c-31.55-31.55-78.87-31.55-94.65,15.77C54.81,176.45,196.78,66,181,144.91q0-47.32-47.32-47.33c78.87-15.77,110.42,94.65,47.32,142,0-31.55,78.87-78.87,0-110.42,63.1,63.1-47.32,126.19-110.42,126.19,47.33-15.77,63.1-47.32,94.65-78.87C70.58,223.78,7.49,97.58,54.35,33.24,58.89,22,62.33,15.52,62.33,15.52Z"/></g></g></svg>